<svg width="21" height="20" viewBox="0 0 21 20" fill="none" xmlns="http://www.w3.org/2000/svg">
<path d="M18.6716 8.36792H18.0003V8.33333H10.5003V11.6667H15.2099C14.5228 13.6071 12.6766 15 10.5003 15C7.73908 15 5.50033 12.7612 5.50033 10C5.50033 7.23875 7.73908 5 10.5003 5C11.7749 5 12.9345 5.48083 13.8174 6.26625L16.1745 3.90917C14.6862 2.52208 12.6953 1.66667 10.5003 1.66667C5.89824 1.66667 2.16699 5.39792 2.16699 10C2.16699 14.6021 5.89824 18.3333 10.5003 18.3333C15.1024 18.3333 18.8337 14.6021 18.8337 10C18.8337 9.44125 18.7762 8.89583 18.6716 8.36792Z" fill="#FFC107"/>
<path d="M3.12793 6.12125L5.86585 8.12917C6.60668 6.295 8.40085 5 10.5004 5C11.775 5 12.9346 5.48083 13.8175 6.26625L16.1746 3.90917C14.6863 2.52208 12.6954 1.66667 10.5004 1.66667C7.2996 1.66667 4.52376 3.47375 3.12793 6.12125Z" fill="#FF3D00"/>
<path d="M10.4998 18.3333C12.6523 18.3333 14.6081 17.5096 16.0869 16.17L13.5077 13.9875C12.6429 14.6452 11.5862 15.0009 10.4998 15C8.3323 15 6.49189 13.6179 5.79855 11.6892L3.08105 13.7829C4.46022 16.4817 7.26105 18.3333 10.4998 18.3333Z" fill="#4CAF50"/>
<path d="M18.6713 8.36792H18V8.33333H10.5V11.6667H15.2096C14.8809 12.5902 14.2889 13.3972 13.5067 13.9879L13.5079 13.9871L16.0871 16.1696C15.9046 16.3354 18.8333 14.1667 18.8333 10C18.8333 9.44125 18.7758 8.89583 18.6713 8.36792Z" fill="#1976D2"/>
</svg>
