<svg width="343" height="274" viewBox="0 0 343 274" fill="none" xmlns="http://www.w3.org/2000/svg">
<path fill-rule="evenodd" clip-rule="evenodd" d="M107.171 41.408C107.171 45.1633 104.718 48.2075 101.692 48.2075C98.6666 48.2075 96.2137 45.1633 96.2137 41.408C96.2137 37.6527 98.6666 34.6085 101.692 34.6085C104.718 34.6085 107.171 37.6527 107.171 41.408Z" fill="#19141E"/>
<path d="M94.2062 68.3443L93.9769 60.5347C93.9769 60.5347 94.7996 60.5993 96.0153 60.6644C102.131 60.9917 106.521 56.7209 106.632 50.5979C106.697 47.0752 106.389 43.2522 105.169 40.3728L105.108 40.0972L84.8098 37.7546L83.6718 49.2466C82.988 47.2568 77.345 45.0006 75.8699 47.8499C72.6733 54.0241 84.1031 58.1814 84.1031 58.1814L82.9425 68.438" fill="#FFCCD7"/>
<path d="M78.0984 50.2625L82.1337 53.2418" stroke="#0C092A"/>
<path opacity="0.398926" fill-rule="evenodd" clip-rule="evenodd" d="M93.977 60.5346L87.4908 59.1625L93.9459 63.4646L93.977 60.5346Z" fill="#0C092A"/>
<path d="M99.2492 48.3278L100.77 53.6734L98.5854 54.2657" stroke="#001833" stroke-linecap="square"/>
<path fill-rule="evenodd" clip-rule="evenodd" d="M96.7717 49.3088C96.9053 50.0368 96.4151 50.7337 95.6774 50.8652C94.9394 50.997 94.233 50.5135 94.0996 49.7857C93.9661 49.0576 94.456 48.3607 95.194 48.229C95.932 48.0974 96.6381 48.5807 96.7717 49.3088Z" fill="#001833"/>
<path fill-rule="evenodd" clip-rule="evenodd" d="M104.303 49.3088C104.437 50.0368 103.947 50.7337 103.209 50.8652C102.471 50.997 101.765 50.5135 101.631 49.7857C101.498 49.0576 101.988 48.3607 102.726 48.229C103.464 48.0974 104.17 48.5807 104.303 49.3088Z" fill="#001833"/>
<path d="M85.1791 51.2081C83.2545 47.9584 80.47 46.9673 79.2201 46.6766C78.7216 45.2551 78.3416 43.6065 78.0746 41.8531C77.3586 37.1604 80.8168 32.879 83.6102 31.6496C86.4377 30.4054 91.3132 28.6813 98.4496 31.0217C103.247 32.5962 106.314 28.8266 109.137 30.4366C113.962 33.1884 109.474 45.2362 97.2415 42.1756C88.4911 39.9863 88.2662 40.5355 88.1912 42.1269C87.9486 47.2709 87.1356 50.2971 85.1791 51.2081Z" fill="#001833"/>
<path d="M95.2485 55.228C95.2485 55.228 96.2058 57.2616 98.2749 57.2134" stroke="#001833"/>
<path fill-rule="evenodd" clip-rule="evenodd" d="M98.5109 49.3735C98.5109 51.066 97.1201 52.4378 95.4044 52.4378C93.689 52.4378 92.2982 51.066 92.2982 49.3735C92.2982 47.681 93.689 46.3088 95.4044 46.3088C97.1201 46.3088 98.5109 47.681 98.5109 49.3735Z" stroke="#001833"/>
<path fill-rule="evenodd" clip-rule="evenodd" d="M106.333 49.3735C106.333 51.066 104.942 52.4378 103.226 52.4378C101.511 52.4378 100.12 51.066 100.12 49.3735C100.12 47.681 101.511 46.3088 103.226 46.3088C104.942 46.3088 106.333 47.681 106.333 49.3735Z" stroke="#001833"/>
<path d="M99.8669 49.5164H98.5237" stroke="#001833" stroke-width="4"/>
<path d="M92.2982 49.3743H84.6246" stroke="#001833"/>
<path fill-rule="evenodd" clip-rule="evenodd" d="M102.194 243.867L102.27 237.462L93.8867 233.303L92.6702 251.612H121.714C116.772 246.129 102.194 243.867 102.194 243.867ZM64.9908 244.117L65.0665 236.923L59.6012 241.306L55.2034 243.719L53.752 251.612H73.6302C71.1309 244.906 64.9908 244.117 64.9908 244.117Z" fill="#0D0B6D"/>
<path fill-rule="evenodd" clip-rule="evenodd" d="M65.0665 236.923L56.6836 234.441L55.2032 243.719L64.9909 244.116L65.0665 236.923ZM102.27 237.462L93.8867 234.981L93.2109 243.469L102.194 243.867L102.27 237.462Z" fill="#FFCCD7"/>
<path d="M103.471 235.362L103.278 241.306H92.2201L92.414 235.344C91.1752 234.855 90.2901 233.678 90.2599 232.287L88.48 143.252L69.2479 233.14C68.977 234.404 68.0249 235.386 66.8159 235.748L66.0929 241.306H54.4989L55.4967 235.17C54.5313 234.433 53.9718 233.22 54.1642 231.925L71.8703 112.79L87.8711 112.79L87.8702 112.744H107.25L106.088 232.12C106.072 233.69 104.964 235.003 103.471 235.362Z" fill="#09074A"/>
<path opacity="0.197824" fill-rule="evenodd" clip-rule="evenodd" d="M88.3817 144.663L91.7749 129.844L89.222 174.77L88.3817 144.663Z" fill="#0C092A"/>
<path d="M76.0102 112.903L77.8673 113.202L57.6144 234.609L55.7517 234.302L76.0102 112.903Z" fill="#EFEFEF"/>
<path fill-rule="evenodd" clip-rule="evenodd" d="M133.869 71.9529L133.736 69.6926C133.736 69.6926 133.739 68.1197 133.946 66.4218C133.998 65.9958 134.113 65.5504 134.235 65.0747L134.235 65.0746C134.6 63.6541 135.034 61.9641 134.085 59.7187C132.818 56.7239 135.846 58.7916 136.517 60.2161C136.776 60.7667 136.851 61.5988 136.926 62.4242V62.4243C137.013 63.379 137.099 64.3248 137.467 64.815C138.047 64.5051 138.433 64.1015 138.433 64.1015L144.96 55.8151C145.17 55.5364 145.559 55.4531 145.87 55.6172L146.222 55.8047C146.591 56.0026 146.708 56.4661 146.472 56.8047C146.019 57.4551 145.228 58.5523 144.402 59.6992C142.903 61.7801 141.286 64.0245 141.355 64.0598L141.528 64.2655L149.194 56.3541C149.433 56.0911 149.835 56.0443 150.131 56.2448L150.591 56.5573C150.926 56.7838 150.998 57.2369 150.748 57.5494C149.93 58.5826 147.907 60.82 146.222 62.6828L146.222 62.683L146.222 62.6831C144.764 64.2947 143.56 65.6257 143.611 65.6535L143.84 65.8697L150.977 59.7005C151.229 59.4244 151.661 59.3932 151.953 59.6249L152.302 59.9036C152.608 60.1458 152.653 60.5859 152.403 60.8827L145.663 67.0858L145.857 67.3853L151.708 63.3619C151.977 63.1275 152.382 63.1275 152.653 63.3593L152.815 63.5025C153.103 63.7525 153.135 64.1822 152.885 64.4713C152.486 64.9325 151.698 65.5385 150.758 66.2608L150.758 66.2609L150.758 66.2609C149.676 67.0922 148.394 68.0777 147.275 69.1743C146.659 69.7785 146.162 70.3706 145.658 70.9705L145.658 70.9706C144.836 71.9507 143.996 72.9516 142.589 74.0597C141.75 74.7236 140.99 75.1097 140.268 75.4771C140.165 75.5291 140.064 75.5807 139.963 75.6326L133.869 71.9529ZM81.2592 66.7668C81.2592 66.7668 85.7687 66.7582 89.0234 66.7475C92.2777 66.7366 96.3703 68.0832 96.3703 68.0832C96.3703 68.0832 98.4999 72.7904 91.1024 72.3641C83.7049 71.9373 81.2592 66.7668 81.2592 66.7668ZM56.5934 85.8154C56.5934 85.8154 49.3744 96.4773 49.5381 102.407C49.7313 109.398 72.4414 126.576 72.4414 126.576L78.3269 121.859L64.03 102.246L69.2293 91.3492L56.5934 85.8154Z" fill="#FFCCD7"/>
<path d="M76.6172 113.31L80.1328 117.951L69.5434 127.033C69.5434 127.033 50.1111 113.02 49.511 102.033C49.1289 95.035 55.3516 85.0458 55.3516 85.0458C55.3516 85.0458 63.1621 72.7644 72.1908 68.6196C74.0437 67.769 78.5359 67.0595 81.2591 66.7668C82.0939 66.6771 81.5948 66.9971 81.8813 67.5387C82.1807 68.1045 83.092 68.9428 83.7225 69.5695C85.0346 70.8738 87.6206 71.8614 89.0097 72.0636C90.0683 72.2176 92.1142 72.4566 93.0983 72.3266C94.0823 72.1965 95.1524 71.7594 95.4383 71.4998C95.7242 71.2401 96.1496 70.9152 96.3703 70.4147C96.591 69.9142 96.5797 70.0576 96.5797 69.5959C96.5797 69.1342 96.5555 69.2024 96.5096 68.9827C96.4636 68.763 96.4636 68.6309 96.4366 68.5174C96.3167 68.0149 96.3703 68.0832 96.3703 68.0832C101.7 69.667 104.4 70.2531 106.342 72.5571L121.18 82.8023L131.333 69.7683L144.433 78.4218C144.433 78.4218 132.834 99.6823 124.428 102.033C117.657 103.926 110.797 98.0378 108.385 95.676L111.251 109.988C111.71 112.459 109.511 113.394 107.551 113.307L76.6172 113.31Z" fill="#9087E5"/>
<path opacity="0.201242" fill-rule="evenodd" clip-rule="evenodd" d="M108.34 95.6846L106.566 88.7891L111.355 98.2127L108.34 95.6846Z" fill="#0C092A"/>
<path opacity="0.200591" d="M75.3021 111.648L67.0325 100.11L77.0216 85.2058" stroke="#0C092A" stroke-width="5"/>
<path d="M248.92 72.7816L249.148 65.0902C249.148 65.0902 248.39 65.1493 247.255 65.2109C241.1 65.545 236.697 61.2413 236.713 55.0778C236.721 51.8138 237.05 48.1852 238.091 44.9621L258.254 42.655L259.688 53.9965C260.367 52.0369 265.669 49.7913 267.134 52.5975C270.309 58.6783 258.956 62.7726 258.956 62.7726L260.108 72.8741" fill="#FFCCD7"/>
<path d="M264.731 55.228L260.696 57.2142" stroke="#0C092A" stroke-linecap="square"/>
<path d="M244.297 53.2671L243.554 56.8275L245.149 57.132" stroke="#001833" stroke-linecap="square"/>
<path opacity="0.399344" fill-rule="evenodd" clip-rule="evenodd" d="M249.148 65.0901L255.59 63.7388L249.178 67.9758L249.148 65.0901Z" fill="#0C092A"/>
<path fill-rule="evenodd" clip-rule="evenodd" d="M247.38 53.0411C247.248 53.7582 247.734 54.4445 248.467 54.574C249.2 54.7038 249.902 54.2276 250.035 53.5108C250.167 52.7938 249.68 52.1074 248.948 51.9777C248.214 51.8481 247.513 52.3241 247.38 53.0411Z" fill="#001833"/>
<path fill-rule="evenodd" clip-rule="evenodd" d="M239.369 53.0411C239.236 53.7582 239.723 54.4445 240.456 54.574C241.189 54.7038 241.891 54.2276 242.023 53.5108C242.156 52.7938 241.669 52.1074 240.936 51.9777C240.203 51.8481 239.501 52.3241 239.369 53.0411Z" fill="#001833"/>
<path d="M247.581 59.2004C247.581 59.2004 246.227 61.3585 243.546 61.1756" stroke="#001833"/>
<path d="M263.499 51.5724C264.394 48.3155 267.634 36.2934 267.253 34.2411C266.811 31.8626 265.118 28.9428 256.421 25.8802C249.052 23.2855 244.895 25.1644 243.636 26.7631C241.72 29.1957 238.091 44.9622 238.091 44.9622C238.091 44.9622 241.093 47.0524 251.742 46.6919C251.742 46.6919 250.268 52.9624 256.31 52.6021C256.31 52.6021 255.662 54.7137 258.587 55.3779C260.191 52.9374 262.32 51.9511 263.499 51.5724Z" fill="#001833"/>
<path fill-rule="evenodd" clip-rule="evenodd" d="M301.946 225.792L293.846 218.478L296.66 211.08L313.995 223.755L299.952 247.892C299.952 247.892 299.501 241.894 300.235 235.249C300.743 230.659 301.946 225.792 301.946 225.792ZM223.894 241.771L225.744 235.899L233.576 236.307L227.058 252.433L202.018 238.149C209.448 235.934 223.894 241.771 223.894 241.771Z" fill="#0D0B6D"/>
<path fill-rule="evenodd" clip-rule="evenodd" d="M295.888 220.342L296.778 211.073L306.756 218.508L301.946 225.793L295.888 220.342ZM225.418 236.891L233.162 237.578L230.303 244.404L223.894 241.771L225.418 236.891Z" fill="#FFCCD7"/>
<path d="M240.092 143.435L218.49 238.534L224.44 240.028H224.442L231.369 241.771L231.403 241.779L233.801 242.381C233.801 242.381 244.807 208.197 254.495 177.7C256.853 181.48 259.509 185.216 262.497 188.849C283.729 214.663 296.72 225.697 296.72 225.697L298.652 222.83L298.657 222.823L303.3 215.934L306.659 210.951C306.659 210.951 277.585 183.932 264.503 145.923C266.803 138.523 268.397 133.241 268.806 131.55C271.15 121.912 271.198 117.495 271.198 117.143H246.063L235.983 117.143C236.35 123.425 237.364 132.766 240.092 143.435L240.092 143.435Z" fill="#B9B2F0"/>
<path fill-rule="evenodd" clip-rule="evenodd" d="M218.49 238.534L224.44 240.028H224.442L231.369 241.771L231.403 241.779L233.801 242.381C233.801 242.381 244.807 208.197 254.496 177.7C258.277 165.795 261.856 154.453 264.503 145.923C266.803 138.523 268.396 133.241 268.806 131.55C271.15 121.912 271.198 117.495 271.198 117.143H246.063L240.092 143.435L218.49 238.534Z" fill="#B9B2F0"/>
<path fill-rule="evenodd" clip-rule="evenodd" d="M227.47 122.627C227.47 122.627 231.054 123.056 231.736 124.582C233.688 128.95 229.644 136.756 229.644 136.756C229.644 136.756 231.357 135.762 231.698 136.632C231.85 137.019 232.194 140.112 225.776 140.32C225.094 140.342 223.455 139.023 223.455 139.023C223.455 139.023 224.65 141.195 222.82 141.622C222.82 141.622 219.87 137.416 219.825 136.48C219.78 135.544 220.727 130.807 221.238 129.85C221.75 128.893 227.47 122.627 227.47 122.627ZM275.941 130.245C276.563 128.497 277.114 127.57 277.114 127.57L286.473 128.003C287.423 130.58 287.526 131.465 287.758 133.462C287.769 133.552 287.779 133.644 287.791 133.739C288.003 135.557 288.017 137.385 287.295 139.818C286.831 141.381 286.335 142.71 286.077 142.654C285.427 142.513 285.403 141.717 285.403 141.717L285.709 140.236L285.848 138.791C285.848 138.791 283.539 145.19 283.343 145.154C282.651 145.03 282.541 143.908 282.541 143.908C282.541 143.908 281.818 146.117 281.454 146.037C280.527 145.833 280.615 144.81 280.615 144.81C280.615 144.81 280.322 145.055 280.098 144.993C279.259 144.762 279.284 143.344 279.299 142.513C279.3 142.446 279.301 142.383 279.301 142.325C279.301 142.325 279.673 139.709 279.597 138.902C279.211 134.794 278.544 133.817 278.179 133.282C278.144 133.231 278.112 133.184 278.084 133.139C277.51 133.511 277.298 134.149 277.073 134.826C276.909 135.319 276.738 135.832 276.416 136.279C275.437 137.639 272.708 138.925 274.234 135.808C275.081 134.078 275.292 133.013 275.487 132.025C275.602 131.445 275.712 130.891 275.941 130.245Z" fill="#FFCCD7"/>
<path opacity="0.150646" d="M228.334 128.269C228.334 128.269 227.433 131.507 224.342 132.515C223.261 132.868 223.531 137.033 220.882 136.535" stroke="#0C092A" stroke-width="3"/>
<path fill-rule="evenodd" clip-rule="evenodd" d="M261.01 72.9631L259.819 68.0594L254.64 68.3745L251.08 72.687L248.765 68.7287L247.112 68.8303L246.599 73.4085C239.061 76.2381 237.746 79.0061 236.096 82.4784C235.919 82.8518 235.738 83.2333 235.544 83.624C233.369 88.0205 236.025 118.537 236.025 118.537L268.676 117.064C268.676 117.064 264.252 73.2944 261.354 72.997C261.239 72.9852 261.125 72.9739 261.01 72.9631Z" fill="#EFEFEF"/>
<path d="M236.687 118.588L235.156 94.4546" stroke="#12173A" stroke-width="5"/>
<path fill-rule="evenodd" clip-rule="evenodd" d="M275.809 136.934L278.134 147.298L260.658 148.7C260.658 148.7 259.157 99.0981 259.304 84.5149C259.372 77.8368 261.354 72.9994 261.354 72.9994C261.354 72.9994 269.121 75.2363 270.881 76.3809C275.03 79.0772 284.046 91.994 285.651 98.8221C288.171 109.541 287.91 128.069 287.91 128.069L274.674 127.457L270.861 107.322L270.279 112.476L275.088 133.795C274.922 134.326 274.785 134.728 274.674 134.999C274.122 136.357 273.806 137.147 273.872 137.442C273.934 137.717 274.206 137.882 274.873 137.547C275.049 137.459 275.361 137.254 275.809 136.934ZM235.05 127.46L233.248 131.137L221.668 124.83L231.114 101.522C231.114 101.522 233.571 83.4703 235.052 81.0599C237.916 76.3993 246.542 73.4316 246.542 73.4316C246.542 73.4316 246.54 73.4342 246.54 73.4368C246.454 73.6528 246.385 74.9034 246.23 77.7067C246.126 79.6017 245.982 82.2063 245.767 85.6805C245.292 93.3629 240.789 148.501 240.789 148.501L234.56 147.78L235.05 127.46Z" fill="#09074A"/>
<path fill-rule="evenodd" clip-rule="evenodd" d="M267.385 88.1695L259.526 104.511C259.526 104.511 259.294 86.5352 259.401 82.2105C259.476 79.167 261.353 72.9994 261.353 72.9994L264.473 75.5291C266.454 77.1348 266.964 79.9035 265.68 82.0847L265.639 82.155L266.271 82.716C267.827 84.0964 268.279 86.3097 267.385 88.1695ZM246.542 73.4316L244.347 104.356L238.617 89.1351C237.785 86.9239 238.455 84.4391 240.294 82.9177L240.538 82.7159L240.429 82.1636C240.017 80.0878 240.812 77.9592 242.493 76.6308L246.542 73.4316Z" fill="#0C092A"/>
<path opacity="0.197498" d="M270.924 107.652L270.154 103.892L266.263 96.8605" stroke="#0C092A" stroke-width="5"/>
</svg>
