<svg width="522" height="760" viewBox="0 0 522 760" fill="none" xmlns="http://www.w3.org/2000/svg">
<g id="Illustration">
<g id="Person / Man / 2">
<g id="Man / Legs / 1">
<g id="Group 21">
<g id="Shoes">
<path id="Shoes_2" fill-rule="evenodd" clip-rule="evenodd" d="M133.614 586.045L153.525 567.995L146.608 549.737L103.995 581.016L138.514 640.583C138.514 640.583 139.623 625.78 137.819 609.382C136.572 598.055 133.614 586.045 133.614 586.045ZM324.061 625.972L319.514 611.481L300.261 612.487L316.285 652.284L377.835 617.033C359.57 611.567 324.061 625.972 324.061 625.972Z" fill="#001833"/>
</g>
<g id="Legs skin">
<path id="Skin" fill-rule="evenodd" clip-rule="evenodd" d="M148.505 572.595L146.317 549.72L121.791 568.069L133.614 586.045L148.505 572.595ZM320.315 613.93L301.28 615.625L308.307 632.468L324.061 625.972L320.315 613.93Z" fill="#FFCCD7"/>
</g>
<g id="Pants">
<path id="Pants_2" d="M223.595 399.106L199.838 317.351L263.194 317.766L297.344 317.766C297.408 337.663 295.04 370.435 282.502 407.752L322.309 593.255C322.804 595.584 321.967 597.91 320.268 599.416L326.318 620.665L301.594 627.787L295.705 607.985L295.551 608.035C292.045 609.181 288.271 607.256 287.191 603.78L247.861 477.224C243.426 483.693 238.593 490.15 233.34 496.561C200.081 537.155 179.352 559.047 168.691 569.579C164.886 573.346 158.965 573.529 154.95 570.452L139.747 582.838L124.652 562.294L139.676 550.053C137.268 546.233 137.665 541.266 140.742 537.876C156.061 520.964 199.172 469.318 223.595 399.106Z" fill="#09074A"/>
<mask id="mask0_175_6292" style="mask-type:luminance" maskUnits="userSpaceOnUse" x="124" y="317" width="203" height="311">
<path id="Pants_3" d="M223.595 399.106L198.314 317.766H263.194L297.344 317.766C297.408 337.663 295.04 370.435 282.502 407.752L322.309 593.255C322.804 595.584 321.967 597.91 320.268 599.416L326.318 620.665L301.594 627.787L295.705 607.985L295.551 608.035C292.045 609.181 288.271 607.256 287.191 603.78L247.861 477.224C243.426 483.693 238.593 490.15 233.34 496.561C200.081 537.155 179.352 559.047 168.691 569.579C164.886 573.346 158.965 573.53 154.95 570.452L139.747 582.838L124.652 562.294L139.676 550.053C137.268 546.233 137.665 541.266 140.742 537.876C156.061 520.964 199.172 469.319 223.595 399.107L223.595 399.106Z" fill="white"/>
</mask>
<g mask="url(#mask0_175_6292)">
</g>
</g>
<g id="Overlay">
<path id="Path" opacity="0.0987491" fill-rule="evenodd" clip-rule="evenodd" d="M295.705 607.985L295.55 608.035C292.045 609.181 288.271 607.256 287.191 603.78L247.861 477.223L223.595 399.107L200.368 317.766H263.194L282.502 407.752L322.309 593.255C322.804 595.584 321.967 597.91 320.268 599.416L326.317 620.665L301.594 627.787L295.705 607.985Z" fill="white"/>
</g>
<g id="Pants line">
<path id="Pants line_2" d="M308.966 603.065L298.553 606.722L256.77 463.39L230.992 374.967L214.32 317.766H235.453L239.169 332.191L267.798 443.293L308.966 603.065Z" fill="#EFEFEF"/>
</g>
</g>
</g>
<g id="Man / Body / 5">
<g id="Group 36">
<g id="Skin color">
<path id="Mask" fill-rule="evenodd" clip-rule="evenodd" d="M355.811 245.046C358.334 241.506 360.679 238.218 362.796 235.413C363.083 235.343 363.387 235.268 363.707 235.19C369.456 233.786 380.303 231.136 383.303 228.088C387.756 223.566 393.268 199.799 390.934 197.749C390.921 197.74 390.856 197.689 390.746 197.602C389.4 196.532 381.258 190.066 378.368 190.656C376.425 189.782 375.099 189.199 375.099 189.199L371.06 205.212C370.528 205.67 370.148 206.105 369.974 206.502C369.759 206.991 369.963 207.345 370.459 207.593L369.276 212.283L369.259 212.321C369.201 212.453 369.173 212.575 369.174 212.688L368.663 214.715L365.737 190.678C365.737 190.678 351.72 204.865 348.544 209.469C346.678 212.174 345.373 219.848 346.309 225.718L318.747 257.397L305.249 219.594L275.209 237.282C275.209 237.282 293.615 281.849 309.052 288.123C325.097 288.123 342.827 263.256 355.811 245.046ZM182.653 347.422L178.759 343.966L179.695 285.146L196.752 254.398L169.915 237.282C169.915 237.282 154.672 268.879 154.033 283.113C153.505 294.847 157.813 333.072 159.342 346.131C158.843 347.203 158.395 348.246 158.062 349.155C155.835 355.226 155.592 357.774 155.217 361.715C155.123 362.705 155.021 363.782 154.876 365.025C154.28 370.151 154.239 375.306 156.265 382.165C157.567 386.573 158.957 390.32 159.681 390.162C161.505 389.765 161.575 387.518 161.575 387.518L160.715 383.345L160.325 379.27C160.325 379.27 166.803 397.312 167.352 397.213C169.293 396.861 169.602 393.699 169.602 393.699C169.602 393.699 171.632 399.926 172.653 399.7C175.252 399.126 175.006 396.242 175.006 396.242C175.006 396.242 175.826 396.931 176.456 396.757C178.81 396.106 178.74 392.109 178.699 389.765C178.695 389.577 178.692 389.399 178.691 389.234C178.691 389.234 177.648 381.858 177.861 379.584C178.017 377.919 178.154 376.437 178.276 375.114C179.082 366.364 179.244 364.611 180.052 363.334C181.661 364.384 182.257 366.182 182.889 368.092C183.349 369.48 183.829 370.927 184.731 372.188C187.476 376.024 195.134 379.647 190.853 370.86C188.476 365.98 187.885 362.978 187.336 360.191C187.014 358.557 186.707 356.996 186.063 355.175C184.319 350.246 182.653 347.422 182.653 347.422Z" fill="#FFCCD7"/>
</g>
<g id="T-Shirt">
<path id="T-Shirt_2" fill-rule="evenodd" clip-rule="evenodd" d="M299.204 317.657H199.926L198.262 257.867L168.925 236.697C168.925 236.697 181.351 216.703 207.003 193.583C219.606 187.751 222.122 187.546 227.236 187.128C227.966 187.068 228.749 187.004 229.622 186.919H230.649H231.676L234.757 186.919L240.919 186.919L248.108 186.919L252.216 186.919L259.405 186.919L264.54 188.973L268.649 191.027H270.703L272.024 191.278C285.738 194.971 298.698 202.585 306.274 216.088C306.885 217.176 307.443 218.224 307.951 219.233L308.059 219.212L308.39 220.118C310.221 223.884 311.345 227.095 311.941 229.83L318.213 246.981L302.889 256.257L299.204 317.657Z" fill="#9087E5"/>
</g>
<path id="Stroke 16" opacity="0.200521" d="M198.26 257.864L206.223 263.195L225.364 241.206" stroke="#0C092A" stroke-width="5"/>
<path id="Phone" d="M380.056 218.994L378.669 225.708H356.208L366.803 172.261H389.264C388.682 175.198 387.311 182.116 385.15 193.014L380.734 190.994L379.358 190.618L378.275 190.678L377.806 190.994V192.293L382.607 199.106L378.934 200.684L373.283 203.609L371.65 204.725L371.018 205.303L370.501 205.759L370.172 206.151L369.974 206.502L369.889 206.957L369.974 207.159L370.072 207.314L370.215 207.454L372.067 208.099L376.293 206.957H380.469L374.895 208.099L371.222 210.268L369.974 211.428L369.269 212.281V213.062L370.501 213.609L378.275 212.728L375.701 214.11L373.995 215.154L372.431 215.949L371.222 217.489V218.249L371.65 218.695L372.736 219.265H374.392H377.727L380.056 218.994Z" fill="#5E93D1"/>
<path id="Fill 23" fill-rule="evenodd" clip-rule="evenodd" d="M356.205 225.708H352.488L363.083 172.261H366.799L356.205 225.708Z" fill="#020101"/>
<path id="Fill 34" fill-rule="evenodd" clip-rule="evenodd" d="M370.668 178.467C370.357 180.028 369.437 181.165 368.612 181.006C367.787 180.847 367.37 179.453 367.681 177.892C367.991 176.33 368.912 175.194 369.737 175.352C370.562 175.512 370.978 176.906 370.668 178.467Z" fill="#020101"/>
</g>
</g>
<g id="Group 782">
<path id="Path_2" d="M256.57 206C255.989 206.001 255.408 205.971 254.832 205.91C250.999 205.511 247.506 203.801 245.119 201.155C242.731 198.509 241.646 195.144 242.102 191.799L248.995 141.197C249.452 137.852 251.413 134.803 254.446 132.72C255.948 131.688 257.668 130.925 259.508 130.474C261.348 130.023 263.272 129.892 265.17 130.089C267.067 130.287 268.902 130.809 270.569 131.625C272.235 132.441 273.701 133.536 274.883 134.846C276.065 136.157 276.94 137.659 277.457 139.264C277.974 140.87 278.124 142.549 277.898 144.205L271.004 194.807C270.582 197.89 268.88 200.731 266.221 202.794C263.561 204.856 260.128 205.997 256.57 206Z" fill="#FFCCD7"/>
<path id="Path_3" d="M270.167 182.036L273.411 182.398C277.183 182.823 281.003 182.412 284.599 181.193C288.194 179.974 291.477 177.978 294.213 175.346C296.949 172.715 299.072 169.513 300.429 165.967C301.787 162.422 302.347 158.621 302.069 154.835L300.692 136.079C300.247 130.021 297.682 124.314 293.448 119.959C289.213 115.604 283.579 112.881 277.537 112.267C270.72 111.575 263.907 113.62 258.598 117.951C253.288 122.283 249.917 128.545 249.225 135.362L247.358 153.752C246.67 160.52 248.68 167.286 252.95 172.581C257.221 177.876 263.407 181.273 270.167 182.036Z" fill="#FFCCD7"/>
<path id="Path_4" d="M255.139 162.1L255.143 162.097C259.611 159.349 261.005 153.498 258.256 149.029L255.432 144.439C252.683 139.971 246.832 138.577 242.364 141.326L242.361 141.328C237.892 144.077 236.499 149.928 239.248 154.396L242.072 158.986C244.821 163.454 250.671 164.848 255.139 162.1Z" fill="#FFCCD7"/>
<path id="Path_5" d="M243.433 148.749L251.049 156.799" stroke="#001833" stroke-linecap="square"/>
<path id="Path_6" d="M288.714 138.461L289.25 153.535L283.888 153.752" stroke="#001833" stroke-linecap="square"/>
<path id="Path_7" d="M272.743 158.433C272.3 159.252 272.023 160.151 271.927 161.078C271.831 162.004 271.918 162.94 272.184 163.833C272.45 164.726 272.889 165.557 273.477 166.28C274.064 167.004 274.788 167.604 275.607 168.047C276.426 168.49 277.325 168.768 278.251 168.863C279.178 168.959 280.114 168.872 281.007 168.606C281.9 168.34 282.731 167.901 283.454 167.313C284.177 166.726 284.777 166.003 285.221 165.183C287.084 161.734 283.458 160.16 279.988 158.296C276.519 156.433 274.607 154.988 272.743 158.433Z" fill="#001833"/>
<path id="Path_8" d="M257.135 155.708L264.379 128.496L266.098 122.056C267.713 123.786 269.603 125.238 271.693 126.35C279.276 130.432 302.138 128.806 305.305 112.774C307.889 99.7011 294.007 107.216 286.899 106.399C275.73 105.111 267.982 98.5378 252.687 106.801C234.394 116.698 243.059 140.961 243.059 140.961C243.059 140.961 251.109 137.809 257.135 155.708Z" fill="#001833"/>
<path id="Path_9" opacity="0.4" d="M272.166 182.478L262.478 181.597L271.325 190.23L272.166 182.478Z" fill="#0C092A"/>
<path id="Path_10" d="M278.39 146.604C279.859 146.604 281.051 145.413 281.051 143.943C281.051 142.474 279.859 141.283 278.39 141.283C276.921 141.283 275.73 142.474 275.73 143.943C275.73 145.413 276.921 146.604 278.39 146.604Z" fill="#001833"/>
<path id="Path_11" d="M294.261 146.604C295.73 146.604 296.921 145.413 296.921 143.943C296.921 142.474 295.73 141.283 294.261 141.283C292.791 141.283 291.6 142.474 291.6 143.943C291.6 145.413 292.791 146.604 294.261 146.604Z" fill="#001833"/>
</g>
<g id="Group 235">
<path id="Path_12" d="M521.07 32H393.07V136H521.07V32Z" fill="#C4D0FB"/>
<path id="Path_13" d="M457.07 120.679C462.372 120.679 466.67 117.135 466.67 112.762C466.67 108.389 462.372 104.844 457.07 104.844C451.768 104.844 447.47 108.389 447.47 112.762C447.47 117.135 451.768 120.679 457.07 120.679Z" fill="white"/>
<path id="Path_14" d="M454.216 86.4708C455.84 83.6971 457.772 81.112 459.976 78.7643C461.595 77.0634 463.048 75.2141 464.314 73.2415C465.263 71.6243 465.743 69.7795 465.703 67.9096C465.703 65.1287 464.789 62.8765 462.961 61.153C461.133 59.4296 458.687 58.5664 455.624 58.563C449.82 58.563 445.439 61.1173 442.481 66.2254L434.67 59.9682C436.799 56.2393 439.886 53.1342 443.618 50.9691C447.274 48.88 451.574 47.8356 456.518 47.8356C462.539 47.8356 467.336 49.443 470.91 52.6583C474.484 55.8736 476.269 60.3045 476.266 65.9512C476.312 68.3758 475.946 70.7905 475.184 73.0946C474.56 74.9478 473.679 76.706 472.566 78.3188C471.309 80.0192 469.963 81.6535 468.534 83.2149C466.81 85.0416 465.283 87.0421 463.978 89.1832C462.944 91.0706 462.433 93.1956 462.496 95.3425H452.239C452.239 91.7845 452.898 88.8273 454.216 86.4708Z" fill="white"/>
</g>
</g>
</g>
</svg>
