<svg width="312" height="230" viewBox="0 0 312 230" fill="none" xmlns="http://www.w3.org/2000/svg">
<path d="M222.982 13.5275H174.942V81.4684H222.982V13.5275Z" fill="#B9B2F0"/>
<path d="M198.116 62.8684C200.361 62.8684 202.18 61.0528 202.18 58.813C202.18 56.5732 200.361 54.7576 198.116 54.7576C195.872 54.7576 194.052 56.5732 194.052 58.813C194.052 61.0528 195.872 62.8684 198.116 62.8684Z" fill="white"/>
<path d="M196.794 47.4484C197.569 46.1166 198.49 44.8753 199.541 43.748C200.313 42.9313 201.006 42.0433 201.61 41.0961C202.062 40.3196 202.291 39.4337 202.272 38.5359C202.272 37.2005 201.836 36.1191 200.964 35.2915C200.093 34.464 198.927 34.0495 197.466 34.0479C194.698 34.0479 192.609 35.2744 191.199 37.7271L187.474 34.7226C188.49 32.9321 189.962 31.4411 191.741 30.4015C193.484 29.3983 195.535 28.8969 197.892 28.8969C200.763 28.8969 203.051 29.6687 204.755 31.2126C206.459 32.7565 207.31 34.8841 207.309 37.5955C207.331 38.7597 207.157 39.9192 206.793 41.0256C206.495 41.9154 206.075 42.7596 205.544 43.534C204.945 44.3505 204.303 45.1353 203.622 45.885C202.8 46.7622 202.072 47.7228 201.45 48.7509C200.957 49.6572 200.713 50.6775 200.743 51.7084H195.852C195.852 49.9999 196.166 48.5799 196.794 47.4484Z" fill="white"/>
<path d="M174.911 48.5171L165.871 48.9003C165.871 48.9003 169.641 30.3276 174.911 28.3104L174.956 38.6007C176.77 37.089 178.707 35.7231 179.397 36.0992C180.685 36.7904 174.911 48.5171 174.911 48.5171Z" fill="#FFCCD7"/>
<path d="M212.008 212.942L211.716 230.008L251.849 219.67L231.265 214.266L212.008 212.942Z" fill="#0D0B6D"/>
<path d="M241.898 99.5897L255.263 100.572L247.94 63.7209L239.563 87.3529L241.898 99.5897Z" fill="#0D0B6D"/>
<path d="M164.844 151.466C165.238 151.09 169.629 126.024 172.416 109.915C173.104 105.948 174.913 102.26 177.632 99.2862C180.351 96.312 183.865 94.1756 187.761 93.1292L238.206 79.5852L246.324 104.759L201.09 120.095L198.336 152.503" fill="#09074A"/>
<path d="M130.486 154.819L132.318 158.992C134.198 163.264 137.365 166.844 141.38 169.235C145.395 171.626 150.057 172.707 154.716 172.329L186.738 169.722L206.599 220.646C206.599 220.646 236.465 213.269 235.595 212.112C234.988 211.301 221.257 173.902 213.059 151.492C211.348 146.814 208.088 142.857 203.821 140.276C199.552 137.694 194.529 136.642 189.582 137.292L144.164 143.261" fill="#09074A"/>
<path d="M133.588 167.834L161.511 156.265L155.845 138.907L125.265 146.282L133.588 167.834Z" fill="#3361C2"/>
<path d="M127.439 128.963L131.666 143.677L155.277 137.168L161.511 156.265L124.685 171.518C123.047 172.198 121.279 172.508 119.506 172.428C117.734 172.347 116.001 171.878 114.432 171.052C112.862 170.226 111.495 169.065 110.426 167.652C109.358 166.238 108.616 164.606 108.253 162.873C104.321 143.974 101.607 111.481 127.216 105.933C133.963 104.47 151.371 76.6935 151.371 76.6935L155.965 49.6573L175.99 47.6166L173.634 80.8171C173.38 84.3659 172.138 87.7732 170.049 90.6559L153.239 113.839L168.317 139.342L129.612 161.329" fill="#9087E5"/>
<mask id="mask0_127_3269" style="mask-type:luminance" maskUnits="userSpaceOnUse" x="105" y="47" width="71" height="126">
<path fill-rule="evenodd" clip-rule="evenodd" d="M127.439 128.963L131.666 143.677L155.277 137.168L161.511 156.265L124.685 171.518C123.047 172.198 121.279 172.508 119.506 172.428C117.734 172.347 116.001 171.878 114.432 171.052C112.862 170.226 111.495 169.065 110.426 167.652C109.358 166.238 108.616 164.606 108.253 162.873C104.321 143.974 101.607 111.481 127.216 105.933C133.963 104.47 151.371 76.6935 151.371 76.6935L155.965 49.6573L175.99 47.6166L173.634 80.8171C173.38 84.3659 172.138 87.7732 170.049 90.6559L153.239 113.839L168.317 139.342L129.612 161.329" fill="white"/>
</mask>
<g mask="url(#mask0_127_3269)">
<path d="M166.88 150.653C170.055 150.653 172.628 148.085 172.628 144.916C172.628 141.748 170.055 139.18 166.88 139.18C163.705 139.18 161.132 141.748 161.132 144.916C161.132 148.085 163.705 150.653 166.88 150.653Z" fill="#EFEFEF"/>
<path d="M179.751 135.633C182.926 135.633 185.499 133.064 185.499 129.896C185.499 126.728 182.926 124.16 179.751 124.16C176.576 124.16 174.002 126.728 174.002 129.896C174.002 133.064 176.576 135.633 179.751 135.633Z" fill="#EFEFEF"/>
<path d="M177.093 167.545C180.268 167.545 182.841 164.976 182.841 161.808C182.841 158.64 180.268 156.072 177.093 156.072C173.918 156.072 171.344 158.64 171.344 161.808C171.344 164.976 173.918 167.545 177.093 167.545Z" fill="#EFEFEF"/>
<path d="M125.889 83.0718C129.064 83.0718 131.638 80.5035 131.638 77.3354C131.638 74.1672 129.064 71.599 125.889 71.599C122.714 71.599 120.141 74.1672 120.141 77.3354C120.141 80.5035 122.714 83.0718 125.889 83.0718Z" fill="#EFEFEF"/>
<path d="M102.752 81.1957C105.926 81.1957 108.5 78.6274 108.5 75.4593C108.5 72.2911 105.926 69.7229 102.752 69.7229C99.5767 69.7229 97.0031 72.2911 97.0031 75.4593C97.0031 78.6274 99.5767 81.1957 102.752 81.1957Z" fill="#EFEFEF"/>
<path d="M136.102 99.9635C139.277 99.9635 141.85 97.3953 141.85 94.2271C141.85 91.0589 139.277 88.4907 136.102 88.4907C132.927 88.4907 130.353 91.0589 130.353 94.2271C130.353 97.3953 132.927 99.9635 136.102 99.9635Z" fill="#EFEFEF"/>
<path d="M112.965 98.0874C116.139 98.0874 118.713 95.5192 118.713 92.351C118.713 89.1829 116.139 86.6146 112.965 86.6146C109.79 86.6146 107.216 89.1829 107.216 92.351C107.216 95.5192 109.79 98.0874 112.965 98.0874Z" fill="#EFEFEF"/>
<path d="M138.786 68.056C141.96 68.056 144.534 65.4878 144.534 62.3196C144.534 59.1515 141.96 56.5833 138.786 56.5833C135.611 56.5833 133.037 59.1515 133.037 62.3196C133.037 65.4878 135.611 68.056 138.786 68.056Z" fill="#EFEFEF"/>
<path d="M115.648 66.1776C118.823 66.1776 121.396 63.6094 121.396 60.4412C121.396 57.2731 118.823 54.7049 115.648 54.7049C112.473 54.7049 109.899 57.2731 109.899 60.4412C109.899 63.6094 112.473 66.1776 115.648 66.1776Z" fill="#EFEFEF"/>
<path d="M169.535 118.741C172.71 118.741 175.284 116.173 175.284 113.004C175.284 109.836 172.71 107.268 169.535 107.268C166.36 107.268 163.787 109.836 163.787 113.004C163.787 116.173 166.36 118.741 169.535 118.741Z" fill="#EFEFEF"/>
<path d="M100.123 113.108C103.297 113.108 105.871 110.54 105.871 107.371C105.871 104.203 103.297 101.635 100.123 101.635C96.9477 101.635 94.3741 104.203 94.3741 107.371C94.3741 110.54 96.9477 113.108 100.123 113.108Z" fill="#EFEFEF"/>
</g>
<path fill-rule="evenodd" clip-rule="evenodd" d="M127.326 108.382L129.941 86.1562L127.326 108.382Z" fill="#FFCCD7"/>
<path d="M127.326 108.382L129.941 86.1562" stroke="#FFCCD7" stroke-width="12" stroke-linecap="round"/>
<path d="M190.428 169.969L186.048 169.505L187.487 164.004" stroke="#6A5AE0" stroke-linecap="square"/>
<path d="M125.854 145.422L129.793 144.442" stroke="#6A5AE0" stroke-linecap="square"/>
<path d="M158.721 147.963C158.721 147.933 166.929 140.464 166.929 140.464L176.647 138.428C176.647 138.428 168.668 130.757 156.386 140.593" fill="#FFCCD7"/>
<path d="M201.38 115.572L202.007 120.636L195.502 120.539" stroke="#6A5AE0" stroke-linecap="square"/>
<path d="M126.231 128.958L129.765 144.51L155.277 137.168L158.863 148.151L167.153 140.038L189.806 137.062C189.806 137.062 196.367 136.03 199.58 138.089" stroke="#6A5AE0" stroke-linecap="square"/>
<path d="M105.739 59.3983H0V111.661H105.739V59.3983Z" fill="#9087E5"/>
<path d="M311.812 114.396H217.902V155.392H311.812V114.396Z" fill="#9087E5"/>
<path d="M187.607 172.446H70.4635V221.006H187.607V172.446Z" fill="#9087E5"/>
<path d="M106.811 208.13H81.3903L94.1006 186.816L106.811 208.13Z" fill="#ECF6FF"/>
<path d="M141.745 208.13H116.326L129.034 186.816L141.745 208.13Z" fill="#ECF6FF"/>
<path d="M176.678 208.13H151.26L163.968 186.816L176.678 208.13Z" fill="#ECF6FF"/>
<path d="M248.638 148.128C250.339 148.128 251.719 146.751 251.719 145.053C251.719 143.354 250.339 141.978 248.638 141.978C246.937 141.978 245.556 143.354 245.556 145.053C245.556 146.751 246.937 148.128 248.638 148.128Z" fill="#ECF6FF"/>
<path d="M250.775 122.808H246.499V139.735H250.775V122.808Z" fill="#ECF6FF"/>
<path d="M263.678 148.128C265.379 148.128 266.76 146.751 266.76 145.053C266.76 143.354 265.379 141.978 263.678 141.978C261.977 141.978 260.597 143.354 260.597 145.053C260.597 146.751 261.977 148.128 263.678 148.128Z" fill="#ECF6FF"/>
<path d="M265.817 122.808H261.541V139.735H265.817V122.808Z" fill="#ECF6FF"/>
<path d="M278.721 148.128C280.422 148.128 281.802 146.751 281.802 145.053C281.802 143.354 280.422 141.978 278.721 141.978C277.02 141.978 275.639 143.354 275.639 145.053C275.639 146.751 277.02 148.128 278.721 148.128Z" fill="#ECF6FF"/>
<path d="M280.858 122.808H276.582V139.735H280.858V122.808Z" fill="#ECF6FF"/>
<path d="M33.0278 102.228C35.2723 102.228 37.0918 100.413 37.0918 98.1729C37.0918 95.9331 35.2723 94.1174 33.0278 94.1174C30.7833 94.1174 28.9638 95.9331 28.9638 98.1729C28.9638 100.413 30.7833 102.228 33.0278 102.228Z" fill="#ECF6FF"/>
<path d="M35.8502 68.828H30.2077V91.1576H35.8502V68.828Z" fill="#ECF6FF"/>
<path d="M52.8694 102.228C55.1139 102.228 56.9334 100.413 56.9334 98.1729C56.9334 95.9331 55.1139 94.1174 52.8694 94.1174C50.6249 94.1174 48.8055 95.9331 48.8055 98.1729C48.8055 100.413 50.6249 102.228 52.8694 102.228Z" fill="#ECF6FF"/>
<path d="M72.7134 102.228C74.9579 102.228 76.7774 100.413 76.7774 98.1729C76.7774 95.9331 74.9579 94.1174 72.7134 94.1174C70.4689 94.1174 68.6494 95.9331 68.6494 98.1729C68.6494 100.413 70.4689 102.228 72.7134 102.228Z" fill="#ECF6FF"/>
<path d="M75.5335 68.828H69.891V91.1576H75.5335V68.828Z" fill="#ECF6FF"/>
<path d="M299.502 119.519L306.478 126.48" stroke="#ECF6FF" stroke-width="5"/>
<path d="M306.478 119.519L299.502 126.48" stroke="#ECF6FF" stroke-width="5"/>
<path d="M76.3463 178.286L83.7533 185.68" stroke="#ECF6FF" stroke-width="5"/>
<path d="M83.7533 178.286L76.3463 185.68" stroke="#ECF6FF" stroke-width="5"/>
<path d="M5.63065 99.4942L13.0377 106.888" stroke="#ECF6FF" stroke-width="5"/>
<path d="M13.0377 99.4942L5.63065 106.888" stroke="#ECF6FF" stroke-width="5"/>
<path d="M97.1892 63.9169L101.51 68.2286" stroke="#ECF6FF" stroke-width="5"/>
<path d="M101.51 63.9169L97.1892 68.2286" stroke="#ECF6FF" stroke-width="5"/>
<path d="M212.239 71.378L217.356 76.4843" stroke="white"/>
<path d="M217.356 71.378L212.239 76.4843" stroke="white"/>
<path d="M51.5477 86.8083C52.3221 85.4765 53.2435 84.2352 54.2948 83.1079C55.0666 82.2911 55.7592 81.4032 56.3633 80.456C56.8156 79.6794 57.0446 78.7936 57.0253 77.8958C57.0253 76.5604 56.5894 75.479 55.7177 74.6514C54.846 73.8239 53.6799 73.4094 52.2192 73.4077C49.4517 73.4077 47.3627 74.6343 45.9524 77.087L42.2277 74.0825C43.2431 72.292 44.7151 70.801 46.4943 69.7614C48.2377 68.7582 50.288 68.2568 52.6456 68.2568C55.5165 68.2568 57.8041 69.0286 59.5084 70.5725C61.2125 72.1164 62.0637 74.244 62.0623 76.9554C62.0842 78.1196 61.9098 79.2791 61.5463 80.3854C61.2488 81.2753 60.8285 82.1195 60.2977 82.8939C59.6983 83.7104 59.0566 84.4952 58.3752 85.2449C57.553 86.1221 56.825 87.0827 56.2031 88.1107C55.71 89.017 55.4661 90.0374 55.4963 91.0683H50.6054C50.6054 89.3598 50.9194 87.9398 51.5477 86.8083Z" fill="#ECF6FF"/>
<path d="M130.994 106.821L132.326 106.805C138.922 106.732 143.797 100.316 142.496 93.4513L140.984 85.458C139.975 80.1354 135.52 76.3409 130.417 76.4585C124.61 76.5901 120.016 81.7011 120.157 87.8724L120.341 95.8658C120.48 101.995 125.232 106.873 130.994 106.821Z" fill="#FFCCD7"/>
<path d="M135.19 89.5769L136.773 95.9104L134.519 96.4841" stroke="#0C092A"/>
<path d="M124.655 96.1878L126.304 84.1156L126.697 81.2497C127.484 81.9066 128.375 82.4285 129.334 82.7943C132.816 84.1414 142.567 82.2183 143.069 75.1654C143.479 69.4126 137.909 73.3834 134.806 73.4116C129.932 73.4586 126.24 71.0606 120.108 75.4169C112.764 80.6455 117.794 90.5995 117.794 90.5995C117.794 90.5995 121.102 88.8293 124.655 96.1878Z" fill="#001833"/>
<path d="M130.485 92.0783C131.122 92.0783 131.637 91.5637 131.637 90.9287C131.637 90.2937 131.122 89.7791 130.485 89.7791C129.849 89.7791 129.333 90.2937 129.333 90.9287C129.333 91.5637 129.849 92.0783 130.485 92.0783Z" fill="#0C092A"/>
<path d="M137.574 91.3213C138.211 91.3213 138.726 90.8067 138.726 90.1717C138.726 89.5367 138.211 89.022 137.574 89.022C136.938 89.022 136.422 89.5367 136.422 90.1717C136.422 90.8067 136.938 91.3213 137.574 91.3213Z" fill="#0C092A"/>
<path d="M132.403 98.7856C132.403 98.7856 132.071 96.4135 129.383 96.2724" stroke="#0C092A"/>
<path d="M119.573 99.5619C120.996 101.334 123.589 101.619 125.364 100.2C127.14 98.78 127.425 96.1925 126.002 94.4203L123.508 91.3145C122.084 89.5425 119.491 89.2569 117.716 90.6766C115.941 92.0966 115.655 94.6839 117.079 96.456L119.573 99.5619Z" fill="#FFCCD7"/>
<path d="M118.619 93.2256L122.329 96.2748" stroke="#0C092A"/>
<path opacity="0.4" d="M133.363 107L130.569 107.649L133.152 109.402L133.363 107Z" fill="#0C092A"/>
<path d="M166.22 135.776C166.22 135.776 172.6 134.086 176.648 138.423" stroke="#6A5AE0" stroke-linecap="square"/>
</svg>
