<svg width="261" height="380" viewBox="0 0 261 380" fill="none" xmlns="http://www.w3.org/2000/svg">
<path fill-rule="evenodd" clip-rule="evenodd" d="M66.8071 293.022L76.7623 283.997L73.3041 274.869L51.9977 290.508L69.257 320.291C69.257 320.291 69.8116 312.89 68.9093 304.691C68.286 299.027 66.8071 293.022 66.8071 293.022ZM162.031 312.986L159.757 305.741L150.131 306.243L158.142 326.142L188.917 308.516C179.785 305.784 162.031 312.986 162.031 312.986Z" fill="#001833"/>
<path fill-rule="evenodd" clip-rule="evenodd" d="M74.2526 286.298L73.1584 274.86L60.8953 284.034L66.8069 293.023L74.2526 286.298ZM160.157 306.965L150.64 307.812L154.154 316.234L162.031 312.986L160.157 306.965Z" fill="#FFCCD7"/>
<path d="M111.798 199.553L99.9189 158.676L131.597 158.883L148.672 158.883C148.704 168.831 147.52 185.217 141.251 203.876L161.155 296.628C161.402 297.792 160.984 298.955 160.134 299.708L163.159 310.333L150.797 313.893L147.852 303.993L147.775 304.018C146.022 304.591 144.135 303.628 143.596 301.89L123.931 238.612C121.713 241.847 119.297 245.075 116.67 248.281C100.04 268.577 89.6761 279.524 84.3456 284.79C82.4428 286.673 79.4826 286.765 77.475 285.226L69.8736 291.419L62.3261 281.147L69.8382 275.027C68.6341 273.116 68.8324 270.633 70.3711 268.938C78.0305 260.482 99.5858 234.659 111.798 199.553Z" fill="#09074A"/>
<mask id="mask0_175_6294" style="mask-type:luminance" maskUnits="userSpaceOnUse" x="62" y="158" width="102" height="156">
<path d="M111.798 199.553L99.1572 158.883H131.597L148.672 158.883C148.704 168.831 147.52 185.217 141.251 203.876L161.155 296.628C161.402 297.792 160.984 298.955 160.134 299.708L163.159 310.333L150.797 313.893L147.852 303.993L147.775 304.018C146.022 304.591 144.135 303.628 143.596 301.89L123.931 238.612C121.713 241.847 119.297 245.075 116.67 248.281C100.04 268.577 89.6761 279.524 84.3456 284.79C82.4428 286.673 79.4826 286.765 77.475 285.226L69.8736 291.419L62.3261 281.147L69.8382 275.027C68.6341 273.116 68.8324 270.633 70.3711 268.938C78.0305 260.482 99.5858 234.659 111.798 199.553L111.798 199.553Z" fill="white"/>
</mask>
<g mask="url(#mask0_175_6294)">
</g>
<path opacity="0.0987491" fill-rule="evenodd" clip-rule="evenodd" d="M147.852 303.993L147.775 304.018C146.022 304.591 144.135 303.628 143.596 301.89L123.931 238.612L111.798 199.553L100.184 158.883H131.597L141.251 203.876L161.155 296.628C161.402 297.792 160.984 298.955 160.134 299.708L163.159 310.333L150.797 313.893L147.852 303.993Z" fill="white"/>
<path d="M154.483 301.533L149.276 303.361L128.385 231.695L115.496 187.483L107.16 158.883H117.727L119.584 166.096L133.899 221.646L154.483 301.533Z" fill="#EFEFEF"/>
<path fill-rule="evenodd" clip-rule="evenodd" d="M177.905 122.523C179.167 120.753 180.339 119.109 181.398 117.706C181.541 117.671 181.693 117.634 181.853 117.595C184.728 116.893 190.151 115.568 191.652 114.044C193.878 111.783 196.634 99.8996 195.467 98.8744C195.46 98.8701 195.428 98.8444 195.373 98.8008C194.7 98.2661 190.629 95.0331 189.184 95.328C188.212 94.8909 187.549 94.5993 187.549 94.5993L185.53 102.606C185.264 102.835 185.074 103.053 184.987 103.251C184.88 103.496 184.981 103.672 185.23 103.796L184.638 106.142L184.629 106.161C184.6 106.227 184.587 106.288 184.587 106.344L184.331 107.357L182.868 95.3391C182.868 95.3391 175.86 102.432 174.272 104.735C173.339 106.087 172.687 109.924 173.155 112.859L159.374 128.699L152.624 109.797L137.604 118.641C137.604 118.641 146.808 140.924 154.526 144.062C162.549 144.062 171.414 131.628 177.905 122.523ZM91.3267 173.711L89.3796 171.983L89.8477 142.573L98.3758 127.199L84.9573 118.641C84.9573 118.641 77.3362 134.44 77.0164 141.556C76.7523 147.424 78.9067 166.536 79.6712 173.065C79.4214 173.602 79.1977 174.123 79.0311 174.577C77.9174 177.613 77.7962 178.887 77.6087 180.857C77.5616 181.352 77.5103 181.891 77.4381 182.513C77.1398 185.076 77.1193 187.653 78.1323 191.082C78.7836 193.287 79.4786 195.16 79.8407 195.081C80.7526 194.883 80.7873 193.759 80.7873 193.759L80.3573 191.672L80.1624 189.635C80.1624 189.635 83.4015 198.656 83.6759 198.606C84.6464 198.43 84.8009 196.849 84.8009 196.849C84.8009 196.849 85.8158 199.963 86.3267 199.85C87.626 199.563 87.5029 198.121 87.5029 198.121C87.5029 198.121 87.9131 198.466 88.2281 198.378C89.4051 198.053 89.3699 196.054 89.3493 194.883C89.3476 194.788 89.3461 194.699 89.3453 194.617C89.3453 194.617 88.8242 190.929 88.9306 189.792C89.0085 188.96 89.0768 188.218 89.1378 187.557C89.5411 183.182 89.6219 182.305 90.0262 181.667C90.8306 182.192 91.1285 183.091 91.4447 184.046C91.6746 184.74 91.9143 185.464 92.3654 186.094C93.7382 188.012 97.5671 189.824 95.4265 185.43C94.2378 182.99 93.9423 181.489 93.668 180.096C93.5071 179.278 93.3535 178.498 93.0313 177.587C92.1594 175.123 91.3267 173.711 91.3267 173.711Z" fill="#FFCCD7"/>
<path fill-rule="evenodd" clip-rule="evenodd" d="M149.602 158.828H99.9631L99.1308 128.933L84.4625 118.348C84.4625 118.348 90.6757 108.351 103.502 96.7917C109.803 93.8757 111.061 93.7729 113.618 93.5639C113.983 93.5341 114.374 93.5021 114.811 93.4595H115.324H115.838L117.378 93.4595L120.459 93.4595L124.054 93.4595L126.108 93.4595L129.703 93.4595L132.27 94.4865L134.324 95.5135H135.351L136.012 95.6389C142.869 97.4855 149.349 101.293 153.137 108.044C153.442 108.588 153.721 109.112 153.976 109.616L154.029 109.606L154.195 110.059C155.111 111.942 155.673 113.547 155.971 114.915L159.106 123.49L151.444 128.129L149.602 158.828Z" fill="#9087E5"/>
<path opacity="0.200521" d="M99.1301 128.932L103.112 131.598L112.682 120.603" stroke="#0C092A" stroke-width="5"/>
<path d="M190.028 109.497L189.335 112.854H178.104L183.401 86.1307H194.632C194.341 87.5992 193.655 91.0579 192.575 96.5069L190.367 95.4971L189.679 95.309L189.138 95.339L188.903 95.4971V96.1463L191.304 99.5528L189.467 100.342L186.641 101.805L185.825 102.362L185.509 102.651L185.25 102.88L185.086 103.076L184.987 103.251L184.945 103.479L184.987 103.579L185.036 103.657L185.108 103.727L186.034 104.05L188.146 103.479H190.235L187.447 104.05L185.611 105.134L184.987 105.714L184.634 106.141V106.531L185.25 106.804L189.138 106.364L187.85 107.055L186.998 107.577L186.216 107.975L185.611 108.744V109.124L185.825 109.347L186.368 109.632H187.196H188.864L190.028 109.497Z" fill="#5E93D1"/>
<path fill-rule="evenodd" clip-rule="evenodd" d="M178.102 112.854H176.244L181.541 86.1307H183.4L178.102 112.854Z" fill="#020101"/>
<path fill-rule="evenodd" clip-rule="evenodd" d="M185.334 89.2335C185.178 90.014 184.718 90.5827 184.306 90.503C183.894 90.4237 183.685 89.7266 183.84 88.9461C183.996 88.1652 184.456 87.5969 184.868 87.6762C185.281 87.7558 185.489 88.453 185.334 89.2335Z" fill="#020101"/>
<path d="M128.285 103C127.994 103.001 127.704 102.986 127.416 102.955C125.5 102.756 123.753 101.901 122.559 100.577C121.366 99.2545 120.823 97.5719 121.051 95.8997L124.498 70.5984C124.726 68.926 125.706 67.4014 127.223 66.3598C127.974 65.8441 128.834 65.4626 129.754 65.2369C130.674 65.0113 131.636 64.9459 132.585 65.0447C133.534 65.1434 134.451 65.4043 135.284 65.8125C136.118 66.2206 136.851 66.768 137.442 67.4232C138.033 68.0786 138.47 68.8293 138.728 69.632C138.987 70.4348 139.062 71.2743 138.949 72.1023L135.502 97.4036C135.291 98.9452 134.44 100.366 133.11 101.397C131.78 102.428 130.064 102.998 128.285 103Z" fill="#FFCCD7"/>
<path d="M135.084 91.0178L136.706 91.1989C138.592 91.4116 140.502 91.2059 142.299 90.5965C144.097 89.9872 145.738 88.9892 147.106 87.6732C148.475 86.3575 149.536 84.7563 150.215 82.9836C150.894 81.211 151.173 79.3106 151.034 77.4174L150.346 68.0393C150.124 65.0105 148.841 62.1568 146.724 59.9795C144.607 57.8022 141.79 56.4404 138.768 56.1335C135.36 55.7877 131.954 56.8101 129.299 58.9757C126.644 61.1413 124.959 64.2727 124.613 67.6811L123.679 76.8761C123.335 80.2601 124.34 83.6428 126.475 86.2905C128.61 88.9381 131.704 90.6366 135.084 91.0178Z" fill="#FFCCD7"/>
<path d="M127.57 81.0498L127.571 81.0486C129.806 79.6743 130.502 76.7489 129.128 74.5147L127.716 72.2196C126.341 69.9856 123.416 69.2887 121.182 70.663L121.18 70.664C118.946 72.0385 118.249 74.9639 119.624 77.1979L121.036 79.4931C122.41 81.7272 125.335 82.4241 127.57 81.0498Z" fill="#FFCCD7"/>
<path d="M121.717 74.3746L125.524 78.3995" stroke="#001833" stroke-linecap="square"/>
<path d="M144.357 69.2307L144.625 76.7674L141.944 76.8761" stroke="#001833" stroke-linecap="square"/>
<path d="M136.372 79.2166C136.15 79.6261 136.011 80.0755 135.963 80.5388C135.915 81.0021 135.959 81.4702 136.092 81.9165C136.225 82.3629 136.445 82.7787 136.738 83.1401C137.032 83.5018 137.394 83.8018 137.803 84.0234C138.213 84.245 138.662 84.3838 139.126 84.4317C139.589 84.4796 140.057 84.436 140.503 84.3029C140.95 84.1701 141.366 83.9504 141.727 83.6567C142.089 83.3631 142.389 83.0013 142.61 82.5915C143.542 80.8668 141.729 80.08 139.994 79.1482C138.259 78.2164 137.303 77.4939 136.372 79.2166Z" fill="#001833"/>
<path d="M128.567 77.8542L132.19 64.2478L133.049 61.0278C133.856 61.8932 134.802 62.6189 135.846 63.1751C139.638 65.2158 151.069 64.4028 152.653 56.3871C153.945 49.8505 147.004 53.6078 143.45 53.1993C137.865 52.5553 133.991 49.2689 126.343 53.4005C117.197 58.3492 121.53 70.4804 121.53 70.4804C121.53 70.4804 125.555 68.9047 128.567 77.8542Z" fill="#001833"/>
<path opacity="0.4" d="M136.083 91.2391L131.239 90.7984L135.662 95.1152L136.083 91.2391Z" fill="#0C092A"/>
<path d="M139.195 73.3019C139.93 73.3019 140.525 72.7064 140.525 71.9717C140.525 71.2369 139.93 70.6414 139.195 70.6414C138.46 70.6414 137.865 71.2369 137.865 71.9717C137.865 72.7064 138.46 73.3019 139.195 73.3019Z" fill="#001833"/>
<path d="M147.13 73.3019C147.865 73.3019 148.461 72.7064 148.461 71.9717C148.461 71.2369 147.865 70.6414 147.13 70.6414C146.396 70.6414 145.8 71.2369 145.8 71.9717C145.8 72.7064 146.396 73.3019 147.13 73.3019Z" fill="#001833"/>
<path d="M260.535 16H196.535V68H260.535V16Z" fill="#C4D0FB"/>
<path d="M228.535 60.3397C231.186 60.3397 233.335 58.5673 233.335 56.3808C233.335 54.1944 231.186 52.4219 228.535 52.4219C225.884 52.4219 223.735 54.1944 223.735 56.3808C223.735 58.5673 225.884 60.3397 228.535 60.3397Z" fill="white"/>
<path d="M227.108 43.2354C227.92 41.8486 228.886 40.556 229.988 39.3821C230.798 38.5317 231.524 37.6071 232.157 36.6207C232.632 35.8122 232.872 34.8897 232.851 33.9548C232.851 32.5643 232.394 31.4382 231.48 30.5765C230.566 29.7148 229.343 29.2832 227.812 29.2815C224.91 29.2815 222.719 30.5586 221.241 33.1127L217.335 29.9841C218.4 28.1196 219.943 26.5671 221.809 25.4846C223.637 24.44 225.787 23.9178 228.259 23.9178C231.269 23.9178 233.668 24.7215 235.455 26.3291C237.242 27.9368 238.135 30.1523 238.133 32.9756C238.156 34.1879 237.973 35.3953 237.592 36.5473C237.28 37.4739 236.839 38.353 236.283 39.1594C235.654 40.0096 234.981 40.8267 234.267 41.6074C233.405 42.5208 232.641 43.5211 231.989 44.5916C231.472 45.5353 231.217 46.5978 231.248 47.6712H226.12C226.12 45.8922 226.449 44.4136 227.108 43.2354Z" fill="white"/>
</svg>
